HIERARCHY
ROOT Hips
{
	OFFSET -3.958830 18.904000 13.208200
	CHANNELS 6 Xposition Yposition Zposition Zrotation Yrotation Xrotation 
	JOINT LHipJoint
	{
		OFFSET 0.000000 0.000000 0.000000
		CHANNELS 3 Zrotation Yrotation Xrotation
		JOINT LeftUpLeg
		{
			OFFSET 1.800000 -1.400000 0.085000
			CHANNELS 3 Zrotation Yrotation Xrotation
			JOINT LeftLeg
			{
				OFFSET 2.215000 -6.000000 0.000000
				CHANNELS 3 Zrotation Yrotation Xrotation
				JOINT LeftFoot
				{
					OFFSET 2.500000 -6.900000 0.000000
					CHANNELS 3 Zrotation Yrotation Xrotation
					JOINT LeftToeBase
					{
						OFFSET 0.200000 -0.500000 1.950000
						CHANNELS 3 Zrotation Yrotation Xrotation
						End Site
						{
							OFFSET 0.000000 0.000000 0.000000
						}
					}
				}
			}
		}
	}
	JOINT RHipJoint
	{
		OFFSET 0.000000 0.000000 0.000000
		CHANNELS 3 Zrotation Yrotation Xrotation
		JOINT RightUpLeg
		{
			OFFSET -1.800000 -1.400000 0.085000
			CHANNELS 3 Zrotation Yrotation Xrotation
			JOINT RightLeg
			{
				OFFSET -2.215000 -6.000000 0.000000
				CHANNELS 3 Zrotation Yrotation Xrotation
				JOINT RightFoot
				{
					OFFSET -2.500000 -6.900000 0.000000
					CHANNELS 3 Zrotation Yrotation Xrotation
					JOINT RightToeBase
					{
						OFFSET -0.200000 -0.500000 1.950000
						CHANNELS 3 Zrotation Yrotation Xrotation
						End Site
						{
							OFFSET 0.000000 0.000000 0.000000
						}
					}
				}
			}
		}
	}
	JOINT LowerBack
	{
		OFFSET 0.000000 0.000000 0.000000
		CHANNELS 3 Zrotation Yrotation Xrotation
		JOINT Spine
		{
			OFFSET -0.087000 1.940000 -0.288900
			CHANNELS 3 Zrotation Yrotation Xrotation
			JOINT Spine1
			{
				OFFSET 0.000000 1.950000 0.060000
				CHANNELS 3 Zrotation Yrotation Xrotation
				JOINT Neck
				{
					OFFSET 0.000000 0.000000 0.000000
					CHANNELS 3 Zrotation Yrotation Xrotation
					JOINT Neck1
					{
						OFFSET 0.000000 1.600000 0.340000
						CHANNELS 3 Zrotation Yrotation Xrotation
						JOINT Head
						{
							OFFSET 0.000000 1.667000 -0.240000
							CHANNELS 3 Zrotation Yrotation Xrotation
							End Site
							{
								OFFSET 0.000000 0.000000 0.000000
							}
						}
					}
				}
				JOINT LeftShoulder
				{
					OFFSET 0.000000 0.000000 0.000000
					CHANNELS 3 Zrotation Yrotation Xrotation
					JOINT LeftArm
					{
						OFFSET 2.700000 1.550000 -0.730000
						CHANNELS 3 Zrotation Yrotation Xrotation
						JOINT LeftForeArm
						{
							OFFSET 5.450000 0.000000 0.000000
							CHANNELS 3 Zrotation Yrotation Xrotation
							JOINT LeftHand
							{
								OFFSET 3.450000 0.000000 0.000000
								CHANNELS 3 Zrotation Yrotation Xrotation
								JOINT LeftHandIndex1
								{
									OFFSET 0.750000 0.000000 0.000000
									CHANNELS 3 Zrotation Yrotation Xrotation
									End Site
									{
										OFFSET 0.000000 0.000000 0.000000
									}
								}
							}
						}
					}
				}
				JOINT RightShoulder
				{
					OFFSET 0.000000 0.000000 0.000000
					CHANNELS 3 Zrotation Yrotation Xrotation
					JOINT RightArm
					{
						OFFSET -2.700000 1.550000 -0.730000
						CHANNELS 3 Zrotation Yrotation Xrotation
						JOINT RightForeArm
						{
							OFFSET -5.450000 0.000000 0.000000
							CHANNELS 3 Zrotation Yrotation Xrotation
							JOINT RightHand
							{
								OFFSET -3.450000 0.000000 0.000000
								CHANNELS 3 Zrotation Yrotation Xrotation
								JOINT RightHandIndex1
								{
									OFFSET -0.750000 0.000000 0.000000
									CHANNELS 3 Zrotation Yrotation Xrotation
									End Site
									{
										OFFSET 0.000000 0.000000 0.000000
									}
								}
							}
						}
					}
				}
			}
		}
	}
}
MOTION
Frames: 12
Frame Time: 0.016667
0.651270 16.656200 -0.467270 -9.629979 -31.752098 2.311817 -15.391457 11.088808 1.936031 4.509028 -1.715775 -6.410650 -9.363019 4.515420 2.513104 -0.736089 3.962033 3.243571 0.472650 0.309900 0.486050 18.875571 -6.233579 8.291224 22.414422 32.916526 -76.723005 -2.553357 -1.422552 43.041875 -0.527495 -4.265430 2.644120 0.325660 0.075430 0.208090 -4.802685 -2.589717 -9.319792 21.455778 -5.203161 24.584260 -2.248260 3.480214 5.547150 -1.561339 -3.038275 -8.318438 -7.449557 1.904431 29.285710 -9.451100 5.875970 -19.217860 -26.762473 -20.570773 -1.957481 -13.630184 -28.169817 -6.533122 64.003084 -53.265856 -32.087262 -3.641630 2.088120 0.560070 0.114200 0.113960 0.052170 28.899306 18.713105 9.787988 52.049210 -5.610591 -5.413654 -1.927956 1.642071 -0.071957 2.204400 -1.244853 -0.260630 0.297140 0.028030 -0.322660 
0.657850 16.662890 -0.472650 -9.740322 -32.053771 3.157518 -15.404862 10.962520 1.904742 4.341006 -1.745598 -6.720830 -9.210918 4.327241 1.802252 -0.741980 3.906433 3.271326 0.471840 0.312300 0.483190 18.897912 -6.140885 8.405917 20.734660 34.256893 -78.843535 -3.258650 -1.289382 47.178462 -0.659751 -5.031667 2.387664 0.331480 0.094400 0.217280 -4.836383 -2.516330 -9.380043 21.404871 -4.706867 23.852950 -2.128569 3.819686 5.810152 -1.371473 -2.708120 -8.345482 -6.656036 1.773037 28.895413 -9.514050 6.018600 -18.597180 -26.901403 -20.853571 -1.862170 -14.137487 -28.005553 -6.548984 63.157431 -53.447292 -31.701410 -3.657877 2.098459 0.539840 0.137400 0.103920 0.059270 28.659900 18.944531 9.886235 52.373789 -5.660470 -5.752084 -1.731346 3.428125 -0.292708 2.168877 -1.269389 -0.259710 0.295990 0.025570 -0.317000 
0.656720 16.661750 -0.470500 -9.392130 -31.269711 3.128173 -15.428711 10.935905 1.887571 3.995961 -1.753335 -6.740746 -9.093973 4.268353 1.700500 -0.741773 3.881664 3.283873 0.481280 0.325930 0.485440 18.895368 -6.066530 8.457940 19.303447 35.154447 -81.470771 -5.222985 -0.636861 51.717056 -0.814452 -5.885952 2.101608 0.341920 0.101510 0.220530 -4.773709 -2.631828 -9.417380 20.565146 -4.629343 23.697613 -1.682197 3.577603 5.863285 -1.360481 -2.456645 -8.340725 -6.066740 1.739239 28.318730 -9.309620 6.047550 -18.454780 -27.041185 -21.056601 -1.858835 -14.317836 -27.749621 -6.705034 61.577444 -53.775748 -30.901849 -3.661578 2.123374 0.527990 0.145560 0.100230 0.067050 28.859510 18.939198 9.963397 52.088834 -5.942494 -6.264727 -1.188820 5.839273 -0.569619 2.125693 -1.287003 -0.256500 0.295220 0.017590 -0.311990 
0.655410 16.655790 -0.466560 -9.286897 -30.339765 2.984623 -15.442727 10.959970 1.870875 3.951846 -1.788596 -6.856650 -9.106071 4.316908 2.065865 -0.741075 3.880724 3.285582 0.491310 0.340520 0.480530 18.886703 -6.040074 8.452784 17.680969 35.708751 -83.728187 -6.381521 -0.335398 56.530095 -0.991868 -6.824439 1.799472 0.351820 0.106540 0.219390 -4.703077 -2.769999 -9.431498 19.976793 -4.796166 23.826671 -1.294052 3.248525 5.624524 -1.350775 -2.407137 -8.250028 -5.896442 1.809467 27.877105 -8.986960 6.009910 -18.364360 -27.370316 -20.937157 -2.017271 -14.517594 -27.501696 -6.794037 59.150705 -54.704258 -29.825989 -3.649368 2.149784 0.522330 0.147410 0.096550 0.078160 29.239589 18.690032 10.002418 51.281294 -6.346174 -6.833292 0.025167 8.371443 -0.821973 2.079702 -1.300021 -0.254830 0.294620 0.009110 -0.305650 
0.648410 16.649330 -0.459380 -9.136425 -29.091935 2.397347 -15.458581 11.035788 1.861894 4.033712 -1.798197 -6.785190 -9.283044 4.487160 2.819417 -0.724328 3.918039 3.266941 0.495640 0.346820 0.480130 18.864681 -6.035392 8.412035 16.344248 35.601490 -85.028399 -7.804129 0.020851 61.248683 -1.178010 -7.750640 1.509404 0.350170 0.098050 0.214410 -4.594274 -2.964894 -9.450422 19.221762 -5.006628 24.349815 -0.864900 2.821370 5.327229 -1.268231 -2.274216 -8.218969 -5.705509 1.859116 27.855691 -8.621320 6.047930 -18.469790 -27.763339 -20.984758 -2.118606 -14.718721 -27.183154 -7.000915 56.523077 -55.891361 -28.791630 -3.629014 2.175940 0.523220 0.137480 0.098890 0.078690 29.557753 18.554754 10.106106 50.554429 -6.823802 -7.477977 1.327066 10.770107 -0.977573 2.044528 -1.305366 -0.249070 0.288420 0.003500 -0.303820 
0.638180 16.641230 -0.450290 -9.249430 -27.956598 2.018241 -15.462370 11.116608 1.847012 4.439524 -1.884383 -6.922948 -9.522768 4.710495 3.826026 -0.718850 3.981621 3.238387 0.497670 0.343920 0.490480 18.847259 -6.054935 8.356618 15.378476 35.349740 -85.805371 -7.994833 -0.205629 64.279922 -1.304327 -8.347485 1.322064 0.346030 0.089170 0.218240 -4.512721 -3.109620 -9.443265 18.864137 -5.265215 24.685617 -0.591435 2.449685 4.845705 -1.115974 -2.141907 -7.943773 -5.518974 1.795025 27.850329 -8.766300 6.154370 -18.687330 -28.248073 -20.490396 -2.377541 -15.330363 -27.187634 -6.881786 53.598972 -57.263308 -27.658107 -3.616405 2.198318 0.530800 0.131950 0.106020 0.074930 29.775100 17.875354 9.914664 49.808404 -7.096559 -7.959115 2.806579 12.571548 -1.033183 2.019185 -1.305145 -0.247530 0.282590 0.000680 -0.308680 
0.626840 16.632770 -0.436800 -9.368127 -26.735367 1.691291 -15.453659 11.199976 1.839247 4.806286 -1.989499 -7.208866 -9.763608 4.954636 4.932412 -0.713326 4.051549 3.215906 0.479480 0.321270 0.479950 18.835778 -6.108032 8.279421 14.674578 34.690947 -86.161504 -7.692954 -0.701928 65.708912 -1.354151 -8.646821 1.238769 0.333710 0.103110 0.213590 -4.458245 -3.207056 -9.416331 18.740033 -5.522297 24.678502 -0.436646 2.056403 4.431535 -0.965051 -1.992748 -7.664426 -5.365117 1.616017 28.068253 -8.740510 6.119630 -18.300850 -28.562680 -19.876408 -2.550129 -16.695759 -27.402815 -6.567882 50.485880 -58.434522 -26.444371 -3.620502 2.216447 0.526930 0.139880 0.095290 0.073120 29.805166 17.067021 9.627873 49.380385 -7.295327 -8.341392 3.915464 13.954256 -1.031286 1.999952 -1.298407 -0.255790 0.289610 0.009030 -0.308080 
0.613280 16.621930 -0.414090 -9.587846 -25.236694 1.462869 -15.431733 11.292143 1.821712 5.254257 -2.133057 -7.666484 -9.868421 5.221281 6.315079 -0.711703 4.121169 3.187366 0.453950 0.288060 0.459050 18.832806 -6.198396 8.169247 14.023447 33.590806 -86.167623 -7.500960 -1.345978 67.102271 -1.400888 -8.967686 1.144884 0.315880 0.119130 0.212590 -4.431019 -3.275250 -9.365128 18.970630 -5.903501 24.273481 -0.622919 1.549273 3.892837 -0.658159 -1.786747 -7.303542 -5.134204 1.449499 28.386983 -8.553500 6.127790 -17.505230 -28.823909 -18.962288 -2.705154 -18.785646 -27.769282 -6.009486 47.196155 -59.811490 -25.259554 -3.626751 2.252103 0.518680 0.150920 0.076370 0.067820 29.445073 15.872040 9.137418 49.695689 -7.415658 -8.666301 4.622941 14.772742 -1.009413 1.997153 -1.293971 -0.262910 0.283860 0.024320 -0.307410 
0.598770 16.609130 -0.385590 -9.712490 -23.630998 1.270339 -15.404989 11.371709 1.813803 5.647038 -2.339425 -8.230001 -10.040259 5.499681 7.729001 -0.701350 4.204363 3.161410 0.430040 0.257220 0.435290 18.834689 -6.296648 8.046454 13.583929 32.442644 -86.289122 -7.196077 -1.986158 67.617551 -1.408058 -9.128690 1.100998 0.300940 0.147250 0.210440 -4.422795 -3.326520 -9.296938 19.242737 -6.319871 23.526085 -0.716356 0.948593 3.273035 -0.522265 -1.687833 -6.793257 -5.098190 1.261597 28.607026 -8.192370 5.948690 -16.420270 -29.163386 -17.594648 -2.953193 -21.327819 -28.329889 -5.141447 43.588000 -61.113012 -23.832711 -3.639995 2.300104 0.499530 0.167510 0.051570 0.070970 29.500754 14.229947 8.411682 49.585089 -7.418885 -8.620461 5.050091 14.646770 -0.970063 2.008714 -1.288555 -0.269660 0.284890 0.035170 -0.298720 
0.589390 16.597820 -0.354890 -9.697622 -22.276216 1.111659 -15.378067 11.424996 1.785237 5.676427 -2.486567 -8.845569 -9.891790 5.722065 9.249637 -0.715540 4.274288 3.147792 0.391270 0.202970 0.404880 18.848415 -6.375441 7.976310 14.176247 31.669274 -85.907145 -7.768450 -1.817533 66.576425 -1.346118 -8.973575 1.156029 0.279190 0.192510 0.210480 -4.447980 -3.329965 -9.229132 19.619155 -6.559443 22.521022 -1.078533 0.511200 2.784192 -0.283391 -1.478000 -6.263771 -4.905013 0.971025 29.009682 -8.063070 5.797640 -15.196150 -29.309989 -16.133614 -3.185757 -24.475509 -29.215156 -3.948657 39.302581 -61.863595 -21.824974 -3.677647 2.342997 0.490730 0.196430 0.019490 0.073010 29.117570 12.459101 7.584045 50.321883 -7.231643 -8.577400 4.838594 14.189581 -0.950846 2.018154 -1.265666 -0.293630 0.298880 0.059330 -0.296300 
0.582500 16.586010 -0.319890 -9.630497 -20.681875 0.797248 -15.342318 11.516783 1.772723 5.546288 -2.587594 -9.321793 -9.526784 5.906320 10.780856 -0.714900 4.326641 3.133701 0.347960 0.148170 0.374760 18.859308 -6.506262 7.842548 14.947563 30.094162 -84.375428 -7.969197 -1.976734 64.689414 -1.253202 -8.662343 1.255703 0.249760 0.224180 0.203890 -4.474081 -3.335265 -9.134522 20.117210 -6.889166 21.449412 -1.644456 -0.072479 2.337282 0.001455 -1.304185 -5.814024 -4.863372 0.649764 29.692755 -7.756770 5.586150 -14.045110 -29.226524 -14.635701 -3.304985 -27.991805 -30.068246 -2.723382 34.920639 -61.965695 -19.562456 -3.712503 2.392642 0.478480 0.213300 -0.008770 0.064600 28.411457 10.654950 6.721240 51.706628 -6.926201 -8.588627 3.983413 13.563530 -0.942994 2.047270 -1.233036 -0.308340 0.305910 0.084980 -0.292580 
0.574320 16.570330 -0.286120 -9.523194 -19.255756 0.512516 -15.308102 11.608602 1.776901 5.464375 -2.729276 -9.781304 -9.282050 6.115398 12.346895 -0.702539 4.408094 3.107779 0.303530 0.093770 0.332820 18.865639 -6.638926 7.695836 15.675951 28.491473 -82.452282 -7.619613 -2.327133 62.214454 -1.135080 -8.239214 1.394245 0.219480 0.257500 0.198280 -4.496253 -3.336865 -9.038758 20.492309 -7.141918 20.361295 -2.138346 -0.638935 1.788887 0.220940 -1.150665 -5.358970 -4.853925 0.396418 30.367907 -7.315330 5.348040 -12.626400 -29.298527 -13.034307 -3.452471 -31.246259 -30.716092 -1.467111 30.619957 -61.791926 -17.191328 -3.747062 2.456217 0.461260 0.231600 -0.041940 0.061050 28.010788 8.783930 5.852678 52.910349 -6.669260 -8.524619 2.717828 12.805803 -0.934736 2.077050 -1.212458 -0.320000 0.304030 0.109870 -0.284490 
